ply
format ascii 1.0
comment PCL generated
element vertex 56
property float x
property float y
property float z
element face 0
element camera 1
property float view_px
property float view_py
property float view_pz
property float x_axisx
property float x_axisy
property float x_axisz
property float y_axisx
property float y_axisy
property float y_axisz
property float z_axisx
property float z_axisy
property float z_axisz
property float focal
property float scalex
property float scaley
property float centerx
property float centery
property int viewportx
property int viewporty
property float k1
property float k2
end_header
-77.125 -53 163.5625
80.5 -48.5 163.5
-105 -76 179
-93.400002 -76.400002 176.3
-88.5 -75 175
86 -77 176.27272
91.5 -75.5 176
-107.62162 -66.135132 175.64865
-96.949493 -66.808083 173.34343
-84.376343 -66.548386 171.27957
81.929825 -67.236839 172.23685
92.63636 -65.522728 171.56818
107 -72.333336 179
-110.04878 -53.268291 177.60976
-95.962029 -52.835442 172.06329
-80.157028 -52.628098 168.29752
82.25 -53.523811 172.05952
93.777779 -52.277779 168.7
105.28571 -51.285713 175.14285
-108.5 -40.909092 177.31818
-94.804344 -38.79348 175.18478
-82.490196 -39.960785 172.15686
93.92308 -39.333332 173.46153
-78.666664 54 178.33333
-66.196968 54.590908 174.5
-58.46154 56.76923 171.65384
-90.866669 66.800003 177.86667
-81.925926 68.833336 176.40741
-55.67857 66.285713 170.05357
-122 -85.5 194
-110.5 -83.699997 187.3
-99.111115 -82.777779 183.44444
97.92308 -82.53846 182.30769
108 -79.25 184
120 -83 193
-121.89655 -65.344826 184.89655
-116.15151 -66.151512 183.45454
-99.666664 -67.833336 180.5
107.5 -73 180
121 -67 186
-122.29032 -53.290321 184.96774
-115.41177 -52.823528 182.73529
115.5 -49.75 181.875
-111.14286 -39.285713 183.5
118 44 192.5
99 56.872341 185.12766
110.53061 51.02721 184.9796
-95.078949 65.868423 183.97368
-83.279999 65.699997 183.46001
-86.9375 77.125 181.875
119 -92 198
-128.75 -83 197.125
119 -88 195
125 -82 196
-137 -71.5 199
-135 -74 198
0 0 0 1 0 0 0 1 0 0 0 1 0 0 0 0 0 56 1 0 0
